<svg xmlns="http://www.w3.org/2000/svg" width="330.848" height="117.885" viewBox="0 0 330.848 117.885">
  <g id="logo1" transform="translate(-2.6 -1.304)">
    <path id="Path_1" data-name="Path 1" d="M192.638,76.655h0C180.648,71.517,162.95,71.8,162.95,71.8a64.014,64.014,0,0,0-25.977,4.853c-2,.285-2.284-1.142-2.284-5.709-.571-21.98-1.142-43.961-2-65.941,0-3.711-1.713-4.567-5.138-2.855-15.7,7.422-31.115,14.844-46.815,21.98-2.569,1.142-3.711,2.569-2.855,5.138,2.284,7.137,4.282,14.558,6.566,22.551,11.7-10.277,23.122-19.982,35.968-31.115-2.284,31.686-5.424,61.659-9.135,93.06l9.706-9.135a148.171,148.171,0,0,1,21.98-16.271c9.991-5.424,21.98-9.991,34.826-10.847h3.14c4.282,0,8.849.285,13.417.571A4.2,4.2,0,0,0,192.638,76.655Z" transform="translate(139.098 0)" fill="#fff"/>
    <g id="Group_1" data-name="Group 1" transform="translate(283.485 87.217)">
      <path id="Path_2" data-name="Path 2" d="M116.705,31.4A15.544,15.544,0,0,0,101,47.386c0,9.135,6.851,15.986,16.271,15.986a15.84,15.84,0,0,0,15.7-15.7C133.262,38.537,125.84,31.4,116.705,31.4Zm.571,26.833a10.566,10.566,0,1,1,0-21.124,10.566,10.566,0,0,1,0,21.124Z" transform="translate(-100.997 -31.4)" fill="#fbb132"/>
      <path id="Path_3" data-name="Path 3" d="M108.426,38.582a5.427,5.427,0,0,0,3.14-2A9.037,9.037,0,0,0,108.14,34.3a.614.614,0,0,0-.571.571v3.14C107.284,38.3,107.57,38.582,108.426,38.582Z" transform="translate(-89.007 -26.022)" fill="#fbb132"/>
      <path id="Path_4" data-name="Path 4" d="M107.54,38.349a31.138,31.138,0,0,0-3.14,1.713v.571a19.2,19.2,0,0,1,3.14,2c.856.571,1.142,0,1.142-.571V39.206C108.682,38.635,108.111,38.064,107.54,38.349Z" transform="translate(-94.687 -18.653)" fill="#fbb132"/>
      <path id="Path_5" data-name="Path 5" d="M109.7,40.029c.571.285,1.427.571,2,.856a6.718,6.718,0,0,0,.571-2.284c-.285-2.569-.571-2.569-2.855-1.427C107.7,38.031,107.7,38.6,109.7,40.029Z" transform="translate(-87.71 -22.045)" fill="#fbb132"/>
      <path id="Path_6" data-name="Path 6" d="M109.067,37.626a9.711,9.711,0,0,0-.285-2.855c0-.285-.571-.571-.856-.571L104.5,35.913v.571a11.077,11.077,0,0,0,3.14,1.713C108.211,38.767,108.782,38.482,109.067,37.626Z" transform="translate(-94.501 -26.207)" fill="#fbb132"/>
      <path id="Path_7" data-name="Path 7" d="M107.2,39.264v2.855c0,.571.285.856.856.571l3.426-1.713v-.571c-1.142-.571-2-1.142-3.14-1.713C107.771,38.122,107.2,38.407,107.2,39.264Z" transform="translate(-89.494 -18.425)" fill="#fbb132"/>
      <path id="Path_8" data-name="Path 8" d="M107.062,37.6c-.856-.571-1.427-.856-2.284-1.427-.571-.285-.856,0-.856.285a6.424,6.424,0,0,0,.285,4,26.525,26.525,0,0,0,2.855-1.427C107.918,38.746,107.918,38.175,107.062,37.6Z" transform="translate(-95.921 -22.76)" fill="#fbb132"/>
      <path id="Path_9" data-name="Path 9" d="M112.351,39.426A3.3,3.3,0,0,0,108.925,36a3.286,3.286,0,0,0-.285,6.566C110.638,42.566,112.351,41.138,112.351,39.426Zm-3.711,1.427a1.909,1.909,0,0,1-1.713-2,1.842,1.842,0,0,1,1.713-1.713,2.121,2.121,0,0,1,1.713,1.713C110.638,40.282,109.782,41.138,108.64,40.853Z" transform="translate(-92.647 -22.869)" fill="#fff"/>
      <path id="Path_18" data-name="Path 18" d="M.856,0A.856.856,0,1,1,0,.856.856.856,0,0,1,.856,0Z" transform="translate(15.423 15.415)" fill="#fbb132"/>
    </g>
    <path id="Path_10" data-name="Path 10" d="M58.566,19.5c6.566,0,11.989,5.709,16.557,17.128,1.713,1.713,3.711,7.137,6.28,15.986Q89.11,56.9,89.11,60.321c0,1.713-1.427,3.711-4.567,5.709a24.616,24.616,0,0,0,3.711,10.847v.571q-.856,5.138-4.282,5.138c-6.28-.856-9.42-2.569-9.42-4.567-1.142-8.278-3.14-12.56-6.28-12.56H67.7c-10.277.856-15.415,2-15.415,4.282C50.858,79.447,48.575,84.3,45.149,84.3c-5.995-.856-8.849-3.711-8.849-8.849V74.308c0-4.567,5.424-20.553,15.986-48.243C54.569,21.784,56.568,19.5,58.566,19.5Zm-.571,33.113,2,1.427h3.14c2.284,0,3.711-1.142,3.711-3.14-1.142-6.566-2.284-9.706-3.711-9.706h-.571C61.42,42.051,59.993,45.762,57.995,52.613Z" transform="translate(62.5 33.747)" fill="#fff"/>
    <path id="Path_11" data-name="Path 11" d="M74.4,18.6c9.991,0,17.7,5.138,23.408,15.415l.571,3.14v3.711c0,4-3.711,7.707-10.847,10.847-1.713.285-2.569.856-2.569,1.427,0,2,6.28,9.135,18.84,20.553l2,5.138c-1.713,3.14-3.425,4.567-5.709,4.567-3.426,0-12.275-8.564-26.548-25.977a4.824,4.824,0,0,1-1.427.571V69.983a71.92,71.92,0,0,0,1.427,8.849c0,2.855-2,4.853-5.709,5.709h-.856c-3.426,0-6.851-2.855-9.706-8.849l.571-2c-.571-5.138-1.142-9.42-1.142-12.56a54.5,54.5,0,0,1,.571-5.709c0-1.142-.856-4.282-2.569-9.706,0-1.142,1.142-2.569,3.14-4.282V34.3c-.571-2.284-1.142-3.426-1.142-3.711l-.571-2.284c1.427-5.424,6.851-8.564,16.557-9.42H74.4Zm-3.14,21.98,1.427,2.855c7.136,2.569,11.7,0,13.417-7.707-2.284-2.855-4.282-4.282-6.28-4.282l-4.282-.285c-1.142,0-2.569,2.855-4.282,8.278V40.58Z" transform="translate(96.625 32.078)" fill="#fff"/>
    <path id="Path_12" data-name="Path 12" d="M116.459,19.4c4.853,1.427,7.137,3.711,7.137,6.851v4.282a6.751,6.751,0,0,1-3.711,3.14c-.571,0-2.855-.285-7.137-.571-6.851.285-9.135,0-6.28-1.142l-1.427,2v1.427l-2.284,19.982v6.851c0,1.713,0,7.422-.285,17.128,0,2-2,3.14-5.709,3.711H95.62c-5.424-3.14-7.137-9.991-4.853-20.553V58.794c0-4,.285-11.7.571-23.408l-2-1.713c-2.284,0-6.28,1.142-11.989,3.711H76.78c-3.14,0-5.424-2.569-6.28-7.707V27.964c0-4.282,6.28-6.851,18.555-7.707C100.759,19.685,109.608,19.4,116.459,19.4Z" transform="translate(125.928 33.562)" fill="#fff"/>
    <path id="Path_13" data-name="Path 13" d="M16.477,40.709a2.816,2.816,0,0,0,2.569-2.855A2.636,2.636,0,0,0,16.477,35H8.769A2.816,2.816,0,0,0,6.2,37.855a2.636,2.636,0,0,0,2.569,2.855Z" transform="translate(6.677 62.493)" fill="#fbb132"/>
    <path id="Path_14" data-name="Path 14" d="M40.568,51.961V50.534c4-3.426,9.706-7.993,17.413-14.273A18.186,18.186,0,0,0,63.69,24.271c.285-4.567-2.284-6.28-7.707-4.853a36.24,36.24,0,0,0-12.275,9.42c-5.138,5.424-9.991,10.277-13.988,14.273-1.713,0-2.284-.856-1.427-2V32.264c0-7.707-2.569-11.989-7.993-12.846V82.79c.571,0,1.142.285,1.713.285h1.142c3.14,0,5.138-2,5.709-6.28.285-2.569.571-4.282.571-5.138v-6.28c0-2,1.142-3.711,3.14-5.138h1.142l9.42,8.849c7.137,8.849,12.275,13.417,15.415,13.417h2c2-1.427,3.14-3.14,3.14-5.138V75.654l-4.567-5.709C46.562,58.526,40.568,52.532,40.568,51.961Z" transform="translate(32.826 32.687)" fill="#fbb132"/>
    <path id="Path_15" data-name="Path 15" d="M30.62,19.471c-1.427,0-2.284,1.427-2.284,2.855s1.142,2.855,2.284,2.855h5.995c1.142,0,2,1.142,2,2.569h0a2.5,2.5,0,0,1-2,2.569H19.2c-1.427,0-2.284,1.427-2.284,2.855A2.612,2.612,0,0,0,19.2,36.028H42.324a2.206,2.206,0,0,1,2,2.284,2.036,2.036,0,0,1-2,2.284H7.784c-1.427,0-2.284,1.427-2.284,2.855S6.642,46.3,7.784,46.3h40.25V18.9H30.62Z" transform="translate(5.378 32.634)" fill="#fbb132"/>
    <path id="Path_16" data-name="Path 16" d="M18.015,25.755a2.934,2.934,0,0,0-3.14-2.855H5.74A3.127,3.127,0,0,0,2.6,25.755a3.127,3.127,0,0,0,3.14,2.855h9.135A2.775,2.775,0,0,0,18.015,25.755Z" transform="translate(0 40.053)" fill="#fbb132"/>
    <path id="Path_17" data-name="Path 17" d="M40.67,32.126c0,1.713-1.142,3.14-2.284,3.14H14.407c-1.142,0-2,1.427-2,2.855,0,1.713.856,2.855,2,2.855H34.675c1.142,0,2,1.142,2,2.569s-.856,2.569-2,2.569H22.4c-1.142,0-2,1.427-2,2.855,0,1.713.856,2.855,2,2.855H41.812c1.142,0,2.284,1.427,2.284,3.14s-.856,3.14-2.284,3.14H8.7c-1.142,0-2,1.427-2,2.855h0c0,1.713.856,2.855,2,2.855H41.526a2.209,2.209,0,0,0,.856.285h3.711V28.7H38.386C39.528,28.7,40.67,30.127,40.67,32.126Z" transform="translate(7.604 50.809)" fill="#fbb132"/>
  </g>
</svg>
