<svg xmlns="http://www.w3.org/2000/svg" width="435.406" height="155.14" viewBox="0 0 435.406 155.14">
  <g id="logo1" transform="translate(-2.6 -1.304)">
    <path id="Path_1" data-name="Path 1" d="M228.992,100.468h0c-15.778-6.762-39.07-6.386-39.07-6.386-18.408-.751-34.186,6.386-34.186,6.386-2.63.376-3.005-1.5-3.005-7.513-.751-28.927-1.5-57.854-2.63-86.781,0-4.884-2.254-6.011-6.762-3.757-20.662,9.768-40.948,19.535-61.611,28.927-3.381,1.5-4.884,3.381-3.757,6.762,3.005,9.392,5.635,19.159,8.64,29.678,15.4-13.524,30.43-26.3,47.335-40.948-3.005,41.7-7.138,81.146-12.022,122.47L134.7,137.284c9.768-9.016,21.038-16.53,28.927-21.413,13.149-7.138,28.927-13.149,45.832-14.276h4.132c5.635,0,11.646.376,17.657.751A5.522,5.522,0,0,0,228.992,100.468Z" transform="translate(206.76 0)" fill="#0d1e2d"/>
    <g id="Group_1" data-name="Group 1" transform="translate(372.253 114.368)">
      <path id="Path_2" data-name="Path 2" d="M121.669,31.4a20.456,20.456,0,0,0-20.662,21.038c0,12.022,9.016,21.038,21.413,21.038a20.845,20.845,0,0,0,20.662-20.662C143.459,40.792,133.691,31.4,121.669,31.4Zm.751,35.313a13.9,13.9,0,1,1,0-27.8,13.905,13.905,0,0,1,0,27.8Z" transform="translate(-100.997 -31.4)" fill="#0d1e2d"/>
      <path id="Path_3" data-name="Path 3" d="M108.73,39.935a7.142,7.142,0,0,0,4.132-2.63c-1.127-1.5-3.005-2.254-4.508-3.005a.808.808,0,0,0-.751.751v4.132C107.228,39.559,107.6,39.935,108.73,39.935Z" transform="translate(-83.174 -23.405)" fill="#0d1e2d"/>
      <path id="Path_4" data-name="Path 4" d="M108.532,38.373a40.977,40.977,0,0,0-4.132,2.254v.751a25.269,25.269,0,0,1,4.132,2.63c1.127.751,1.5,0,1.5-.751V39.5C110.035,38.749,109.284,38,108.532,38.373Z" transform="translate(-91.617 -12.452)" fill="#0d1e2d"/>
      <path id="Path_5" data-name="Path 5" d="M110.184,41.162c.751.376,1.878.751,2.63,1.127a8.841,8.841,0,0,0,.751-3.005c-.376-3.381-.751-3.381-3.757-1.878C107.554,38.533,107.554,39.284,110.184,41.162Z" transform="translate(-81.247 -17.495)" fill="#0d1e2d"/>
      <path id="Path_6" data-name="Path 6" d="M110.511,38.708a12.78,12.78,0,0,0-.376-3.757c0-.376-.751-.751-1.127-.751L104.5,36.454v.751a14.578,14.578,0,0,0,4.132,2.254C109.384,40.211,110.135,39.835,110.511,38.708Z" transform="translate(-91.341 -23.681)" fill="#0d1e2d"/>
      <path id="Path_7" data-name="Path 7" d="M107.2,39.538v3.757c0,.751.376,1.127,1.127.751l4.508-2.254v-.751c-1.5-.751-2.63-1.5-4.132-2.254C107.951,38.035,107.2,38.411,107.2,39.538Z" transform="translate(-83.898 -12.114)" fill="#0d1e2d"/>
      <path id="Path_8" data-name="Path 8" d="M108.113,38.093c-1.127-.751-1.878-1.127-3.005-1.878-.751-.376-1.127,0-1.127.376a8.454,8.454,0,0,0,.376,5.259,34.907,34.907,0,0,0,3.757-1.878C109.24,39.6,109.24,38.844,108.113,38.093Z" transform="translate(-93.452 -18.558)" fill="#0d1e2d"/>
      <path id="Path_9" data-name="Path 9" d="M114.516,40.508A4.34,4.34,0,0,0,110.008,36a4.324,4.324,0,0,0-.376,8.64C112.262,44.64,114.516,42.762,114.516,40.508Zm-4.884,1.878a2.512,2.512,0,0,1-2.254-2.63,2.424,2.424,0,0,1,2.254-2.254,2.791,2.791,0,0,1,2.254,2.254C112.262,41.635,111.135,42.762,109.632,42.386Z" transform="translate(-88.585 -18.719)" fill="#fbb132"/>
      <circle id="Ellipse_1" data-name="Ellipse 1" cx="1.127" cy="1.127" r="1.127" transform="translate(20.297 20.286)" fill="#0d1e2d"/>
    </g>
    <path id="Path_10" data-name="Path 10" d="M65.6,19.5c8.641,0,15.778,7.513,21.789,22.54,2.254,2.254,4.884,9.392,8.265,21.038Q105.8,68.713,105.8,73.221c0,2.254-1.878,4.884-6.011,7.513a32.4,32.4,0,0,0,4.884,14.276v.751q-1.127,6.762-5.635,6.762c-8.265-1.127-12.4-3.381-12.4-6.011-1.5-10.895-4.132-16.53-8.265-16.53h-.751C64.1,81.11,57.338,82.613,57.338,85.619c-1.878,12.773-4.884,19.159-9.392,19.159C40.057,103.651,36.3,99.894,36.3,93.132v-1.5c0-6.011,7.138-27.049,21.038-63.489C60.343,22.505,62.973,19.5,65.6,19.5Zm-.751,43.578,2.63,1.878h4.132c3.005,0,4.884-1.5,4.884-4.132-1.5-8.64-3.005-12.773-4.884-12.773h-.751C69.359,49.178,67.481,54.062,64.851,63.078Z" transform="translate(92.902 50.163)" fill="#0d1e2d"/>
    <path id="Path_11" data-name="Path 11" d="M80.621,18.6c13.149,0,23.292,6.762,30.805,20.286l.751,4.132V47.9c0,5.259-4.884,10.143-14.276,14.276-2.254.376-3.381,1.127-3.381,1.878,0,2.63,8.265,12.022,24.794,27.049l2.63,6.762c-2.254,4.132-4.508,6.011-7.513,6.011-4.508,0-16.154-11.27-34.938-34.186a6.348,6.348,0,0,1-1.878.751V86.221c0,1.878.751,5.635,1.878,11.646,0,3.757-2.63,6.386-7.513,7.513H70.854c-4.508,0-9.016-3.757-12.773-11.646l.751-2.63c-.751-6.762-1.5-12.4-1.5-16.53a71.72,71.72,0,0,1,.751-7.513c0-1.5-1.127-5.635-3.381-12.773,0-1.5,1.5-3.381,4.132-5.635V39.262c-.751-3.005-1.5-4.508-1.5-4.884l-.751-3.005c1.878-7.138,9.016-11.27,21.789-12.4h2.254ZM76.489,47.527l1.878,3.757c9.392,3.381,15.4,0,17.657-10.143-3.005-3.757-5.635-5.635-8.265-5.635l-5.635-.376c-1.5,0-3.381,3.757-5.635,10.895v1.5Z" transform="translate(143.626 47.682)" fill="#0d1e2d"/>
    <path id="Path_12" data-name="Path 12" d="M130.983,19.4c6.386,1.878,9.392,4.884,9.392,9.016v5.635a8.885,8.885,0,0,1-4.884,4.132c-.751,0-3.757-.376-9.392-.751-9.016.376-12.022,0-8.265-1.5l-1.878,2.63v1.878l-3.005,26.3v9.016c0,2.254,0,9.768-.376,22.54,0,2.63-2.63,4.132-7.513,4.884h-1.5c-7.138-4.132-9.392-13.149-6.386-27.049V71.243c0-5.259.376-15.4.751-30.805l-2.63-2.254c-3.005,0-8.265,1.5-15.778,4.884h-.751c-4.132,0-7.138-3.381-8.265-10.143V30.67c0-5.635,8.265-9.016,24.419-10.143C110.321,19.776,121.967,19.4,130.983,19.4Z" transform="translate(187.183 49.887)" fill="#0d1e2d"/>
    <path id="Path_13" data-name="Path 13" d="M19.724,42.513a3.706,3.706,0,0,0,3.381-3.757A3.469,3.469,0,0,0,19.724,35H9.581A3.706,3.706,0,0,0,6.2,38.757a3.469,3.469,0,0,0,3.381,3.757Z" transform="translate(9.924 92.892)" fill="#fbb132"/>
    <path id="Path_14" data-name="Path 14" d="M46.973,62.4V60.522C52.232,56.014,59.746,50,69.889,41.738c4.884-4.884,7.138-10.143,7.513-15.778.376-6.011-3.005-8.265-10.143-6.386a47.693,47.693,0,0,0-16.154,12.4C44.343,39.108,37.957,45.495,32.7,50.754c-2.254,0-3.005-1.127-1.878-2.63V36.478c0-10.143-3.381-15.778-10.519-16.905v83.4c.751,0,1.5.376,2.254.376h1.5c4.132,0,6.762-2.63,7.513-8.265.376-3.381.751-5.635.751-6.762V80.057c0-2.63,1.5-4.884,4.132-6.762h1.5l12.4,11.646C59.746,96.586,66.508,102.6,70.64,102.6h2.63c2.63-1.878,4.132-4.132,4.132-6.762V93.581l-6.011-7.513C54.862,71.04,46.973,63.151,46.973,62.4Z" transform="translate(48.794 48.587)" fill="#fbb132"/>
    <path id="Path_15" data-name="Path 15" d="M38.559,19.651c-1.878,0-3.005,1.878-3.005,3.757s1.5,3.757,3.005,3.757h7.889c1.5,0,2.63,1.5,2.63,3.381h0a3.291,3.291,0,0,1-2.63,3.381H23.532c-1.878,0-3.005,1.878-3.005,3.757,0,2.254,1.5,3.757,3.005,3.757h30.43a2.9,2.9,0,0,1,2.63,3.005c0,1.878-1.127,3.005-2.63,3.005H8.505c-1.878,0-3.005,1.878-3.005,3.757S7,54.965,8.505,54.965h52.97V18.9H38.559Z" transform="translate(7.995 48.509)" fill="#fbb132"/>
    <path id="Path_16" data-name="Path 16" d="M22.886,26.657A3.861,3.861,0,0,0,18.754,22.9H6.732A4.115,4.115,0,0,0,2.6,26.657a4.115,4.115,0,0,0,4.132,3.757H18.754A3.652,3.652,0,0,0,22.886,26.657Z" transform="translate(0 59.536)" fill="#fbb132"/>
    <path id="Path_17" data-name="Path 17" d="M51.405,33.208c0,2.254-1.5,4.132-3.005,4.132H16.843c-1.5,0-2.63,1.878-2.63,3.757,0,2.254,1.127,3.757,2.63,3.757H43.516c1.5,0,2.63,1.5,2.63,3.381s-1.127,3.381-2.63,3.381H27.362c-1.5,0-2.63,1.878-2.63,3.757,0,2.254,1.127,3.757,2.63,3.757H52.908c1.5,0,3.005,1.878,3.005,4.132s-1.127,4.132-3.005,4.132H9.33c-1.5,0-2.63,1.878-2.63,3.757h0c0,2.254,1.127,3.757,2.63,3.757h43.2a2.908,2.908,0,0,0,1.127.376h4.884V28.7H48.4C49.9,28.7,51.405,30.578,51.405,33.208Z" transform="translate(11.303 75.525)" fill="#fbb132"/>
  </g>
</svg>
